<svg xmlns="http://www.w3.org/2000/svg" viewBox="0 0 250 250"><defs><style>.cls-1{fill:#0095db;}.cls-2{fill:#25336b;}</style></defs><g id="Ebene_2" data-name="Ebene 2"><path class="cls-1" d="M59.13,5.06H216.74c12.5,0,12.5,16,0,16H59.13a20,20,0,0,0-20,20v78.1c0,9.7,13,20,25.2,20H76.81l3,12c.48,1.86,3.15,13.47,1.66,31.66,24.28-16.93,36.09-35.85,36.23-36.08l4.66-7.62h71.75V155H131.35S108,193.05,59.13,213c11.2-34.5,5.25-58,5.25-58-19.75,0-41.16-16.18-41.16-35.91V41A36,36,0,0,1,59.13,5.06Z"/><path class="cls-2" d="M190.21,37h-135v16h135a20,20,0,0,1,19.95,20V151c0,9.7-12.95,19.95-25.2,19.95H172.53l-3,12.05c-.48,1.86-3.15,13.47-1.66,31.67-20.86-14.56-32.49-30.55-35.45-34.91-3.15,3.58-6.92,7.55-11.28,11.69a165.14,165.14,0,0,0,69.1,53.5c-11.2-34.49-5.25-58-5.25-58,19.75,0,41.16-16.17,41.16-35.91V72.89A36,36,0,0,0,190.21,37Z"/></g></svg>