<svg xmlns="http://www.w3.org/2000/svg" viewBox="0 0 343.14 343.14"><defs><style>.cls-1{fill:#0095db;}.cls-2{fill:#25336b;}</style></defs><g id="Ebene_2" data-name="Ebene 2"><path class="cls-1" d="M87.45,26.68h202.3c16.05,0,16.05,20.49,0,20.49H87.45A25.62,25.62,0,0,0,61.84,72.78V173c0,12.44,16.61,25.6,32.34,25.6h15.95L114,214.11c.62,2.38,4,17.29,2.13,40.64,31.17-21.74,46.33-46,46.51-46.32l6-9.79h92.09v20.49h-80.6S150.21,268,87.45,293.62c14.36-44.27,6.73-74.49,6.73-74.49-25.35,0-52.83-20.77-52.83-46.09V72.78A46.24,46.24,0,0,1,87.45,26.68Z"/><path class="cls-2" d="M255.69,67.66H82.4V88.14H255.69a25.62,25.62,0,0,1,25.61,25.61V214c0,12.44-16.62,25.61-32.34,25.61H233l-3.89,15.46c-.61,2.39-4.05,17.29-2.12,40.65-26.79-18.69-41.72-39.21-45.51-44.81-4,4.59-8.89,9.69-14.48,15,10,13.7,39.11,48.42,88.69,68.67-14.36-44.28-6.73-74.5-6.73-74.5,25.35,0,52.83-20.76,52.83-46.09V113.75A46.23,46.23,0,0,0,255.69,67.66Z"/></g></svg>